<svg width="40" height="21" viewBox="0 0 40 21" fill="none" xmlns="http://www.w3.org/2000/svg">
<path d="M0.585933 20.2035C0.135796 18.5533 0.858113 17.2828 1.67551 16.1988C2.83254 14.7059 4.16196 13.3208 5.58646 12.1221C12.2933 6.77203 20.0411 4.76784 28.5142 5.64418C30.6677 5.87465 32.8237 6.4172 35.2129 6.87965C34.7425 4.65228 32.9513 2.98288 32.3402 0.709947C33.3542 0.778927 33.8118 1.44588 34.206 1.98856C35.8147 4.22138 37.4082 6.50114 38.9395 8.81268C39.6659 9.92978 39.562 10.5705 38.4442 11.1423C36.1312 12.3646 33.6711 12.761 31.126 12.3C31.0322 12.2696 30.9371 12.0832 30.7634 11.8194C31.9331 9.96757 34.3604 11.2724 35.861 9.8389C32.8683 8.03977 29.5905 7.60085 26.3154 7.47401C22.8843 7.34857 19.5028 7.5504 16.2214 8.56281C13.0021 9.54346 10.1467 11.1607 7.35595 13.0582C4.5335 14.8936 2.35499 17.3007 0.585933 20.2035Z" fill="black"/>
</svg>
