<svg width="40" height="20" viewBox="0 0 40 20" fill="none" xmlns="http://www.w3.org/2000/svg">
<path d="M38.9307 0.422266C39.3809 2.07242 38.6585 3.34291 37.8412 4.42697C36.6841 5.9198 35.3547 7.30493 33.9302 8.50365C27.2234 13.8537 19.4756 15.8579 11.0024 14.9816C8.84897 14.7511 6.69294 14.2085 4.30372 13.7461C4.77419 15.9735 6.56532 17.6429 7.17649 19.9158C6.16251 19.8468 5.70488 19.1798 5.31064 18.6372C3.70197 16.4044 2.1085 14.1246 0.577139 11.8131C-0.149249 10.6959 -0.0453851 10.0552 1.07246 9.48343C3.38545 8.26118 5.84556 7.86471 8.39069 8.32577C8.48449 8.35614 8.57957 8.54255 8.75324 8.80629C7.58358 10.6582 5.15623 9.35336 3.65571 10.7868C6.6484 12.586 9.92613 13.0249 13.2013 13.1517C16.6323 13.2772 20.0139 13.0753 23.2953 12.0629C26.5145 11.0823 29.37 9.46505 32.1607 7.5675C34.9832 5.7321 37.1617 3.32504 38.9307 0.422266Z" fill="white"/>
</svg>
